<svg version="1.1" id="Layer_1" xmlns="http://www.w3.org/2000/svg" xmlns:xlink="http://www.w3.org/1999/xlink" x="0px" y="0px"
	 width="100%" viewBox="0 0 708 186" enable-background="new 0 0 708 186" xml:space="preserve">
<path fill="#FEFEFE" opacity="0.000000" stroke="none" 
	d="
M462.000000,187.000000 
	C308.042877,187.000000 154.585785,187.000000 1.064338,187.000000 
	C1.064338,125.060272 1.064338,63.120461 1.064338,1.090325 
	C236.999985,1.090325 473.000000,1.090325 708.965332,1.090325 
	C708.965332,63.080925 708.965332,125.040474 708.965332,187.000000 
	C626.787048,187.000000 544.643555,187.000000 462.000000,187.000000 
M12.524240,79.001427 
	C11.352205,74.368309 14.757153,74.945946 17.299049,75.047157 
	C23.198442,75.282036 28.892275,75.248528 32.520885,69.405998 
	C32.204075,69.170921 31.968872,68.844269 31.729853,68.841461 
	C26.733023,68.782639 21.734238,68.668732 16.738928,68.751709 
	C8.393747,68.890343 3.102913,74.228439 3.021357,82.609863 
	C2.940280,90.941994 3.002614,99.275520 3.002653,107.608437 
	C3.002747,128.107422 2.950278,148.606598 3.028987,169.105286 
	C3.061405,177.548126 7.966313,182.983444 15.358307,182.986801 
	C61.522663,183.007812 107.687469,183.076630 153.850372,182.816681 
	C156.884583,182.799606 160.861053,180.934128 162.680969,178.592804 
	C164.809357,175.854614 165.936371,171.659073 165.971283,168.080872 
	C166.231430,141.418060 166.118179,114.751564 166.109985,88.086227 
	C166.107819,81.036499 165.873749,80.812523 158.754349,80.811958 
	C112.423325,80.808266 66.092278,80.826286 19.761351,80.760658 
	C17.517393,80.757477 15.274457,80.034782 12.524240,79.001427 
M236.640060,38.994686 
	C234.087555,40.548561 231.346863,41.862816 229.013367,43.695538 
	C214.814209,54.847477 215.521301,76.394600 230.581711,86.315384 
	C235.263000,89.399109 240.593353,91.506973 245.659805,93.993866 
	C250.574005,96.406006 255.704102,98.435295 260.412384,101.191353 
	C263.958282,103.267036 265.514648,106.702179 264.233917,111.065231 
	C262.936584,115.484894 260.028168,117.988068 255.563309,117.905571 
	C250.949692,117.820335 246.172348,117.637726 241.786240,116.381653 
	C235.799515,114.667221 230.115189,111.896812 223.231277,109.152588 
	C221.017288,113.452576 218.496033,117.868980 216.524826,122.518585 
	C216.037613,123.667816 216.856674,126.424301 217.886688,127.006622 
	C235.756927,137.109451 254.458405,140.526978 273.609467,131.265320 
	C289.830505,123.420647 294.134277,102.455223 282.382629,88.869492 
	C278.507355,84.389374 272.919342,81.114624 267.604797,78.226624 
	C261.198151,74.745148 254.188080,72.392273 247.559219,69.294113 
	C244.047836,67.652992 241.358994,64.907318 242.334015,60.623634 
	C243.289413,56.426140 246.433945,54.320343 250.664001,53.921185 
	C252.150803,53.780884 253.734024,53.520844 255.140350,53.862457 
	C262.039490,55.538349 269.047638,56.967197 275.710999,59.342415 
	C280.293549,60.975883 281.475952,58.001446 282.905060,55.404480 
	C284.993011,51.610279 287.772461,47.742722 285.122314,43.035004 
	C284.983734,42.788849 284.566162,42.684303 284.262878,42.548576 
	C269.079041,35.753113 253.580002,32.816559 236.640060,38.994686 
M521.176514,98.654243 
	C522.260254,105.697624 522.400940,113.054169 524.615173,119.722137 
	C529.971863,135.853333 545.334167,141.037216 560.024536,132.357452 
	C562.247620,131.043884 564.287170,129.419662 566.413696,127.937691 
	C567.841431,129.352509 568.848083,130.808395 570.231140,131.632645 
	C574.030090,133.896622 578.030701,136.946259 582.585999,134.041016 
	C587.023682,131.210739 587.657593,126.012207 585.626404,120.331352 
	C584.642151,117.578499 584.306274,114.482384 584.248535,111.530518 
	C584.076111,102.700691 584.194397,93.865341 584.183655,85.032166 
	C584.165771,70.366043 584.186340,55.699574 584.079956,41.034050 
	C584.048462,36.692444 583.161743,32.171902 578.277954,31.095299 
	C573.410095,30.022200 568.276794,30.153471 562.728760,29.714697 
	C562.728760,42.139477 562.728760,53.374664 562.728760,64.988914 
	C561.080322,64.520477 559.977112,64.233864 558.890503,63.894131 
	C545.874817,59.824459 534.717590,63.942581 527.426453,75.381645 
	C523.062134,82.228752 521.984436,89.934937 521.176514,98.654243 
M322.849030,139.657333 
	C322.849030,137.571152 322.849030,135.484955 322.849030,133.085220 
	C324.484192,133.505219 325.444489,133.713394 326.381439,133.998291 
	C340.601715,138.322220 353.462006,133.129761 359.594757,119.658974 
	C366.358551,104.802063 365.969086,89.541061 359.349823,74.695709 
	C355.198914,65.386391 347.581177,60.420898 337.310944,62.026936 
	C331.156342,62.989384 325.299194,65.854164 318.819153,68.028023 
	C316.709625,63.794930 311.795868,62.980320 306.715790,62.337406 
	C302.506775,61.804729 300.864990,63.062225 300.897247,67.695541 
	C301.099060,96.674835 300.999939,125.656235 301.002045,154.636932 
	C301.002869,166.049484 301.004730,166.049484 312.583374,164.912994 
	C318.607605,164.321716 321.354065,162.132446 322.156281,156.040863 
	C322.825684,150.957535 322.650421,145.762955 322.849030,139.657333 
M691.858032,118.342171 
	C696.029480,102.251076 700.028625,86.112114 704.479309,70.098633 
	C705.781677,65.412567 704.566528,63.486198 699.993408,63.290310 
	C696.170959,63.126575 692.340393,63.150459 688.517883,62.986923 
	C685.269348,62.847946 683.755249,64.403999 683.121582,67.517258 
	C681.497192,75.497559 679.704956,83.444427 677.916687,91.390442 
	C675.940979,100.169441 673.894897,108.932594 671.879456,117.702652 
	C670.651001,116.375168 670.306946,115.128578 670.032104,113.866905 
	C666.956421,99.743385 664.049377,85.580589 660.756409,71.508041 
	C659.133606,64.572723 655.212402,61.811020 648.524353,62.233879 
	C645.900574,62.399765 643.321106,63.230888 640.715271,63.725906 
	C637.423340,64.351242 636.536621,65.850723 637.515625,69.345200 
	C642.269165,86.312088 646.970459,103.302216 651.174683,120.410820 
	C653.303284,129.072891 656.937805,135.340332 666.898987,135.102982 
	C665.726624,144.580597 659.579773,149.570969 650.803650,148.522064 
	C648.333191,148.226822 645.803650,148.027618 643.441589,147.317505 
	C639.957581,146.270111 638.588379,148.524048 638.122498,150.932327 
	C637.377869,154.781128 637.367126,158.772583 637.094666,162.707077 
	C637.089783,162.777679 637.689697,162.897110 638.010437,162.982361 
	C656.145264,167.802658 675.991089,166.670776 684.252686,143.440125 
	C687.087708,135.468704 689.207520,127.242966 691.858032,118.342171 
M510.238678,131.875854 
	C510.651978,131.082077 511.632019,129.984421 511.393738,129.540024 
	C507.701660,122.654366 509.074524,115.202614 508.821503,107.946152 
	C508.502686,98.802475 508.915527,89.579597 507.850586,80.527596 
	C506.019958,64.966881 491.873260,57.830891 477.881287,64.909630 
	C474.805450,66.465744 471.963959,68.485046 468.545898,70.578011 
	C465.672943,63.689186 459.999817,62.387650 453.447815,62.214088 
	C449.150818,62.100258 447.667206,63.291916 447.733765,67.806992 
	C447.989014,85.129349 447.841949,102.457672 447.839508,119.783775 
	C447.837128,136.525055 448.078613,136.679550 464.980133,135.008377 
	C468.607056,134.649750 470.106934,133.502518 470.019135,129.502518 
	C469.741364,116.847244 469.908936,104.182007 469.920258,91.520638 
	C469.925140,86.049889 473.923737,82.340889 479.825867,82.287941 
	C484.186493,82.248817 486.023346,84.430908 486.120575,90.559784 
	C486.284454,100.886131 486.076965,111.218948 486.282837,121.543915 
	C486.509216,132.898712 492.630493,137.496765 503.667450,134.752731 
	C505.728241,134.240372 507.637238,133.117203 510.238678,131.875854 
M117.552773,75.115791 
	C122.715866,75.116402 127.879990,75.177528 133.041580,75.089989 
	C135.336670,75.051056 138.133194,75.483643 139.827881,74.370850 
	C145.891144,70.389427 151.580124,65.838043 157.828781,61.191345 
	C144.979263,44.239941 132.500854,27.778124 119.838699,11.073910 
	C91.022514,32.478664 62.824883,53.423954 34.243416,74.654358 
	C46.895786,74.654358 58.769096,74.654358 70.589600,74.654358 
	C71.641876,60.899910 77.881790,52.998203 88.444382,53.229519 
	C93.120598,53.331924 98.326576,55.014111 102.251259,57.574532 
	C108.021881,61.339233 109.453514,67.970734 109.304192,75.115959 
	C111.982216,75.115959 114.278442,75.115959 117.552773,75.115791 
M389.589630,64.924675 
	C382.638062,68.394417 378.369720,74.088066 375.901245,81.317497 
	C371.892029,93.059486 372.205841,104.798615 375.630035,116.611763 
	C378.602295,126.865677 385.436676,133.397873 395.615784,135.406342 
	C407.127167,137.677704 418.387512,135.991379 428.971313,130.361038 
	C434.386536,127.480247 431.354340,123.932159 430.126282,120.684792 
	C428.945190,117.561676 427.569977,114.925690 422.789795,116.431900 
	C417.498383,118.099205 411.761902,118.919144 406.199493,119.020126 
	C399.043518,119.150063 395.128601,113.523689 396.549438,106.002983 
	C407.121887,106.002983 417.762054,106.098511 428.396515,105.895988 
	C429.923370,105.866913 432.656067,104.507347 432.736511,103.581528 
	C433.293396,97.173485 434.453430,90.493599 433.260742,84.317970 
	C429.533203,65.017242 409.556976,56.130814 389.589630,64.924675 
M623.007141,63.500000 
	C623.008057,58.007019 623.011719,52.514042 623.009399,47.021061 
	C623.002991,31.888834 620.200989,29.288782 605.137817,29.929655 
	C602.358093,30.047920 601.169067,30.936474 601.273682,33.706364 
	C601.367920,36.199547 601.287537,38.699242 601.287537,41.196068 
	C601.287781,65.332146 601.197632,89.468697 601.320068,113.604156 
	C601.408142,130.973389 608.091003,136.747482 625.270691,134.726669 
	C635.122803,133.567764 637.082642,130.526169 633.795654,120.947639 
	C633.390686,119.767685 631.733887,118.440575 630.479004,118.226456 
	C624.241577,117.162216 623.035034,115.969681 623.020508,109.443031 
	C622.987244,94.462082 623.008240,79.481018 623.007141,63.500000 
M43.726364,62.179081 
	C60.256409,50.010849 76.786453,37.842613 94.052429,25.132641 
	C86.812149,20.391153 80.391449,16.186394 73.755943,11.840957 
	C62.273560,29.320414 51.134045,46.277931 39.994530,63.235455 
	C40.233620,63.460323 40.472710,63.685192 40.711800,63.910061 
	C41.528946,63.474781 42.346092,63.039501 43.726364,62.179081 
M165.201492,75.855453 
	C170.227158,77.849663 171.196457,81.953865 171.183929,86.800629 
	C171.119705,111.631897 171.153778,136.463425 171.153519,161.294861 
	C171.153488,163.018951 171.153503,164.743057 171.153503,167.242096 
	C176.666290,163.826233 178.000656,159.527145 177.991714,154.430756 
	C177.950226,130.765976 177.993927,107.101044 177.963425,83.436226 
	C177.951538,74.222450 172.836960,69.116302 163.707993,68.161629 
	C157.116867,67.472343 152.349609,70.193398 147.761322,74.731102 
	C153.573242,75.014030 159.004486,75.278427 165.201492,75.855453 
z"/>
<path fill="#66C6BA" opacity="1.000000" stroke="none" 
	d="
M12.777643,79.324287 
	C15.274457,80.034782 17.517393,80.757477 19.761351,80.760658 
	C66.092278,80.826286 112.423325,80.808266 158.754349,80.811958 
	C165.873749,80.812523 166.107819,81.036499 166.109985,88.086227 
	C166.118179,114.751564 166.231430,141.418060 165.971283,168.080872 
	C165.936371,171.659073 164.809357,175.854614 162.680969,178.592804 
	C160.861053,180.934128 156.884583,182.799606 153.850372,182.816681 
	C107.687469,183.076630 61.522663,183.007812 15.358307,182.986801 
	C7.966313,182.983444 3.061405,177.548126 3.028987,169.105286 
	C2.950278,148.606598 3.002747,128.107422 3.002653,107.608437 
	C3.002614,99.275520 2.940280,90.941994 3.021357,82.609863 
	C3.102913,74.228439 8.393747,68.890343 16.738928,68.751709 
	C21.734238,68.668732 26.733023,68.782639 31.729853,68.841461 
	C31.968872,68.844269 32.204075,69.170921 32.520885,69.405998 
	C28.892275,75.248528 23.198442,75.282036 17.299049,75.047157 
	C14.757153,74.945946 11.352205,74.368309 12.777643,79.324287 
z"/>
<path fill="#4C7885" opacity="1.000000" stroke="none" 
	d="
M237.000717,38.863274 
	C253.580002,32.816559 269.079041,35.753113 284.262878,42.548576 
	C284.566162,42.684303 284.983734,42.788849 285.122314,43.035004 
	C287.772461,47.742722 284.993011,51.610279 282.905060,55.404480 
	C281.475952,58.001446 280.293549,60.975883 275.710999,59.342415 
	C269.047638,56.967197 262.039490,55.538349 255.140350,53.862457 
	C253.734024,53.520844 252.150803,53.780884 250.664001,53.921185 
	C246.433945,54.320343 243.289413,56.426140 242.334015,60.623634 
	C241.358994,64.907318 244.047836,67.652992 247.559219,69.294113 
	C254.188080,72.392273 261.198151,74.745148 267.604797,78.226624 
	C272.919342,81.114624 278.507355,84.389374 282.382629,88.869492 
	C294.134277,102.455223 289.830505,123.420647 273.609467,131.265320 
	C254.458405,140.526978 235.756927,137.109451 217.886688,127.006622 
	C216.856674,126.424301 216.037613,123.667816 216.524826,122.518585 
	C218.496033,117.868980 221.017288,113.452576 223.231277,109.152588 
	C230.115189,111.896812 235.799515,114.667221 241.786240,116.381653 
	C246.172348,117.637726 250.949692,117.820335 255.563309,117.905571 
	C260.028168,117.988068 262.936584,115.484894 264.233917,111.065231 
	C265.514648,106.702179 263.958282,103.267036 260.412384,101.191353 
	C255.704102,98.435295 250.574005,96.406006 245.659805,93.993866 
	C240.593353,91.506973 235.263000,89.399109 230.581711,86.315384 
	C215.521301,76.394600 214.814209,54.847477 229.013367,43.695538 
	C231.346863,41.862816 234.087555,40.548561 237.000717,38.863274 
z"/>
<path fill="#4C7885" opacity="1.000000" stroke="none" 
	d="
M521.196655,98.203415 
	C521.984436,89.934937 523.062134,82.228752 527.426453,75.381645 
	C534.717590,63.942581 545.874817,59.824459 558.890503,63.894131 
	C559.977112,64.233864 561.080322,64.520477 562.728760,64.988914 
	C562.728760,53.374664 562.728760,42.139477 562.728760,29.714697 
	C568.276794,30.153471 573.410095,30.022200 578.277954,31.095299 
	C583.161743,32.171902 584.048462,36.692444 584.079956,41.034050 
	C584.186340,55.699574 584.165771,70.366043 584.183655,85.032166 
	C584.194397,93.865341 584.076111,102.700691 584.248535,111.530518 
	C584.306274,114.482384 584.642151,117.578499 585.626404,120.331352 
	C587.657593,126.012207 587.023682,131.210739 582.585999,134.041016 
	C578.030701,136.946259 574.030090,133.896622 570.231140,131.632645 
	C568.848083,130.808395 567.841431,129.352509 566.413696,127.937691 
	C564.287170,129.419662 562.247620,131.043884 560.024536,132.357452 
	C545.334167,141.037216 529.971863,135.853333 524.615173,119.722137 
	C522.400940,113.054169 522.260254,105.697624 521.196655,98.203415 
M562.899292,89.636658 
	C562.521484,86.936455 563.092041,83.407745 561.590698,81.689125 
	C556.806702,76.212921 548.194763,78.108566 545.996643,84.999802 
	C543.108215,94.055359 543.020020,103.312820 545.678650,112.510239 
	C547.009705,117.114990 550.130371,118.869461 554.798462,118.135094 
	C559.364746,117.416763 562.844604,113.832611 562.881897,109.577805 
	C562.937317,103.252129 562.898193,96.925621 562.899292,89.636658 
z"/>
<path fill="#4C7885" opacity="1.000000" stroke="none" 
	d="
M322.849152,140.137482 
	C322.650421,145.762955 322.825684,150.957535 322.156281,156.040863 
	C321.354065,162.132446 318.607605,164.321716 312.583374,164.912994 
	C301.004730,166.049484 301.002869,166.049484 301.002045,154.636932 
	C300.999939,125.656235 301.099060,96.674835 300.897247,67.695541 
	C300.864990,63.062225 302.506775,61.804729 306.715790,62.337406 
	C311.795868,62.980320 316.709625,63.794930 318.819153,68.028023 
	C325.299194,65.854164 331.156342,62.989384 337.310944,62.026936 
	C347.581177,60.420898 355.198914,65.386391 359.349823,74.695709 
	C365.969086,89.541061 366.358551,104.802063 359.594757,119.658974 
	C353.462006,133.129761 340.601715,138.322220 326.381439,133.998291 
	C325.444489,133.713394 324.484192,133.505219 322.849030,133.085220 
	C322.849030,135.484955 322.849030,137.571152 322.849152,140.137482 
M333.103302,119.041023 
	C335.060028,117.434303 338.011078,116.211182 338.804138,114.155533 
	C342.553986,104.435532 342.742004,94.369164 339.544739,84.440514 
	C338.307983,80.599953 335.262146,78.535889 330.962402,79.365173 
	C326.188995,80.285820 322.884216,83.782516 322.856812,87.926071 
	C322.809540,95.069534 322.844604,102.213531 322.844513,109.357307 
	C322.844452,117.417145 323.812714,118.416229 333.103302,119.041023 
z"/>
<path fill="#4C7885" opacity="1.000000" stroke="none" 
	d="
M691.756042,118.737793 
	C689.207520,127.242966 687.087708,135.468704 684.252686,143.440125 
	C675.991089,166.670776 656.145264,167.802658 638.010437,162.982361 
	C637.689697,162.897110 637.089783,162.777679 637.094666,162.707077 
	C637.367126,158.772583 637.377869,154.781128 638.122498,150.932327 
	C638.588379,148.524048 639.957581,146.270111 643.441589,147.317505 
	C645.803650,148.027618 648.333191,148.226822 650.803650,148.522064 
	C659.579773,149.570969 665.726624,144.580597 666.898987,135.102982 
	C656.937805,135.340332 653.303284,129.072891 651.174683,120.410820 
	C646.970459,103.302216 642.269165,86.312088 637.515625,69.345200 
	C636.536621,65.850723 637.423340,64.351242 640.715271,63.725906 
	C643.321106,63.230888 645.900574,62.399765 648.524353,62.233879 
	C655.212402,61.811020 659.133606,64.572723 660.756409,71.508041 
	C664.049377,85.580589 666.956421,99.743385 670.032104,113.866905 
	C670.306946,115.128578 670.651001,116.375168 671.879456,117.702652 
	C673.894897,108.932594 675.940979,100.169441 677.916687,91.390442 
	C679.704956,83.444427 681.497192,75.497559 683.121582,67.517258 
	C683.755249,64.403999 685.269348,62.847946 688.517883,62.986923 
	C692.340393,63.150459 696.170959,63.126575 699.993408,63.290310 
	C704.566528,63.486198 705.781677,65.412567 704.479309,70.098633 
	C700.028625,86.112114 696.029480,102.251076 691.756042,118.737793 
z"/>
<path fill="#4C7885" opacity="1.000000" stroke="none" 
	d="
M509.927490,132.075897 
	C507.637238,133.117203 505.728241,134.240372 503.667450,134.752731 
	C492.630493,137.496765 486.509216,132.898712 486.282837,121.543915 
	C486.076965,111.218948 486.284454,100.886131 486.120575,90.559784 
	C486.023346,84.430908 484.186493,82.248817 479.825867,82.287941 
	C473.923737,82.340889 469.925140,86.049889 469.920258,91.520638 
	C469.908936,104.182007 469.741364,116.847244 470.019135,129.502518 
	C470.106934,133.502518 468.607056,134.649750 464.980133,135.008377 
	C448.078613,136.679550 447.837128,136.525055 447.839508,119.783775 
	C447.841949,102.457672 447.989014,85.129349 447.733765,67.806992 
	C447.667206,63.291916 449.150818,62.100258 453.447815,62.214088 
	C459.999817,62.387650 465.672943,63.689186 468.545898,70.578011 
	C471.963959,68.485046 474.805450,66.465744 477.881287,64.909630 
	C491.873260,57.830891 506.019958,64.966881 507.850586,80.527596 
	C508.915527,89.579597 508.502686,98.802475 508.821503,107.946152 
	C509.074524,115.202614 507.701660,122.654366 511.393738,129.540024 
	C511.632019,129.984421 510.651978,131.082077 509.927490,132.075897 
z"/>
<path fill="#66C6BA" opacity="1.000000" stroke="none" 
	d="
M117.063721,75.115875 
	C114.278442,75.115959 111.982216,75.115959 109.304192,75.115959 
	C109.453514,67.970734 108.021881,61.339233 102.251259,57.574532 
	C98.326576,55.014111 93.120598,53.331924 88.444382,53.229519 
	C77.881790,52.998203 71.641876,60.899910 70.589600,74.654358 
	C58.769096,74.654358 46.895786,74.654358 34.243416,74.654358 
	C62.824883,53.423954 91.022514,32.478664 119.838699,11.073910 
	C132.500854,27.778124 144.979263,44.239941 157.828781,61.191345 
	C151.580124,65.838043 145.891144,70.389427 139.827881,74.370850 
	C138.133194,75.483643 135.336670,75.051056 133.041580,75.089989 
	C127.879990,75.177528 122.715866,75.116402 117.063721,75.115875 
z"/>
<path fill="#4C7885" opacity="1.000000" stroke="none" 
	d="
M389.910767,64.721367 
	C409.556976,56.130814 429.533203,65.017242 433.260742,84.317970 
	C434.453430,90.493599 433.293396,97.173485 432.736511,103.581528 
	C432.656067,104.507347 429.923370,105.866913 428.396515,105.895988 
	C417.762054,106.098511 407.121887,106.002983 396.549438,106.002983 
	C395.128601,113.523689 399.043518,119.150063 406.199493,119.020126 
	C411.761902,118.919144 417.498383,118.099205 422.789795,116.431900 
	C427.569977,114.925690 428.945190,117.561676 430.126282,120.684792 
	C431.354340,123.932159 434.386536,127.480247 428.971313,130.361038 
	C418.387512,135.991379 407.127167,137.677704 395.615784,135.406342 
	C385.436676,133.397873 378.602295,126.865677 375.630035,116.611763 
	C372.205841,104.798615 371.892029,93.059486 375.901245,81.317497 
	C378.369720,74.088066 382.638062,68.394417 389.910767,64.721367 
M413.468018,85.304604 
	C411.483490,78.998695 408.317596,76.490944 403.330658,77.274605 
	C397.928772,78.123482 395.401398,82.444901 395.695984,90.617844 
	C401.601196,90.617844 407.518066,90.617844 413.474579,90.617844 
	C413.662872,89.993164 413.916718,89.537971 413.912781,89.085014 
	C413.904144,88.090775 413.764984,87.097672 413.468018,85.304604 
z"/>
<path fill="#4C7885" opacity="1.000000" stroke="none" 
	d="
M623.007202,64.000000 
	C623.008240,79.481018 622.987244,94.462082 623.020508,109.443031 
	C623.035034,115.969681 624.241577,117.162216 630.479004,118.226456 
	C631.733887,118.440575 633.390686,119.767685 633.795654,120.947639 
	C637.082642,130.526169 635.122803,133.567764 625.270691,134.726669 
	C608.091003,136.747482 601.408142,130.973389 601.320068,113.604156 
	C601.197632,89.468697 601.287781,65.332146 601.287537,41.196068 
	C601.287537,38.699242 601.367920,36.199547 601.273682,33.706364 
	C601.169067,30.936474 602.358093,30.047920 605.137817,29.929655 
	C620.200989,29.288782 623.002991,31.888834 623.009399,47.021061 
	C623.011719,52.514042 623.008057,58.007019 623.007202,64.000000 
z"/>
<path fill="#6AC7BC" opacity="1.000000" stroke="none" 
	d="
M43.444801,62.391655 
	C42.346092,63.039501 41.528946,63.474781 40.711800,63.910061 
	C40.472710,63.685192 40.233620,63.460323 39.994530,63.235455 
	C51.134045,46.277931 62.273560,29.320414 73.755943,11.840957 
	C80.391449,16.186394 86.812149,20.391153 94.052429,25.132641 
	C76.786453,37.842613 60.256409,50.010849 43.444801,62.391655 
z"/>
<path fill="#71CABF" opacity="1.000000" stroke="none" 
	d="
M164.818604,75.699135 
	C159.004486,75.278427 153.573242,75.014030 147.761322,74.731102 
	C152.349609,70.193398 157.116867,67.472343 163.707993,68.161629 
	C172.836960,69.116302 177.951538,74.222450 177.963425,83.436226 
	C177.993927,107.101044 177.950226,130.765976 177.991714,154.430756 
	C178.000656,159.527145 176.666290,163.826233 171.153503,167.242096 
	C171.153503,164.743057 171.153488,163.018951 171.153519,161.294861 
	C171.153778,136.463425 171.119705,111.631897 171.183929,86.800629 
	C171.196457,81.953865 170.227158,77.849663 164.818604,75.699135 
z"/>
<path fill="#FCFDFD" opacity="0.000000" stroke="none" 
	d="
M562.899292,90.118065 
	C562.898193,96.925621 562.937317,103.252129 562.881897,109.577805 
	C562.844604,113.832611 559.364746,117.416763 554.798462,118.135094 
	C550.130371,118.869461 547.009705,117.114990 545.678650,112.510239 
	C543.020020,103.312820 543.108215,94.055359 545.996643,84.999802 
	C548.194763,78.108566 556.806702,76.212921 561.590698,81.689125 
	C563.092041,83.407745 562.521484,86.936455 562.899292,90.118065 
z"/>
<path fill="#FDFDFE" opacity="0.000000" stroke="none" 
	d="
M332.689941,119.063904 
	C323.812714,118.416229 322.844452,117.417145 322.844513,109.357307 
	C322.844604,102.213531 322.809540,95.069534 322.856812,87.926071 
	C322.884216,83.782516 326.188995,80.285820 330.962402,79.365173 
	C335.262146,78.535889 338.307983,80.599953 339.544739,84.440514 
	C342.742004,94.369164 342.553986,104.435532 338.804138,114.155533 
	C338.011078,116.211182 335.060028,117.434303 332.689941,119.063904 
z"/>
<path fill="#F7FAFB" opacity="0.000000" stroke="none" 
	d="
M413.573578,85.704353 
	C413.764984,87.097672 413.904144,88.090775 413.912781,89.085014 
	C413.916718,89.537971 413.662872,89.993164 413.474579,90.617844 
	C407.518066,90.617844 401.601196,90.617844 395.695984,90.617844 
	C395.401398,82.444901 397.928772,78.123482 403.330658,77.274605 
	C408.317596,76.490944 411.483490,78.998695 413.573578,85.704353 
z"/>
</svg>